<?xml version="1.0" encoding="UTF-8" standalone="no"?>
<svg
   xmlns:dc="http://purl.org/dc/elements/1.1/"
   xmlns:cc="http://creativecommons.org/ns#"
   xmlns:rdf="http://www.w3.org/1999/02/22-rdf-syntax-ns#"
   xmlns:svg="http://www.w3.org/2000/svg"
   xmlns="http://www.w3.org/2000/svg"
   xmlns:sodipodi="http://sodipodi.sourceforge.net/DTD/sodipodi-0.dtd"
   xmlns:inkscape="http://www.inkscape.org/namespaces/inkscape"
   sodipodi:docname="espturq.svg"
   inkscape:version="1.0 (4035a4fb49, 2020-05-01)"
   id="svg8"
   version="1.1"
   viewBox="0 0 210 297"
   height="297mm"
   width="210mm">
  <defs
     id="defs2" />
  <sodipodi:namedview
     inkscape:window-maximized="1"
     inkscape:window-y="-8"
     inkscape:window-x="-8"
     inkscape:window-height="1017"
     inkscape:window-width="1920"
     showgrid="false"
     inkscape:document-rotation="0"
     inkscape:current-layer="layer1"
     inkscape:document-units="mm"
     inkscape:cy="442.6109"
     inkscape:cx="400"
     inkscape:zoom="0.34074713"
     inkscape:pageshadow="2"
     inkscape:pageopacity="0.0"
     borderopacity="1.0"
     bordercolor="#666666"
     pagecolor="#ffffff"
     id="base" />
  <metadata
     id="metadata5">
    <rdf:RDF>
      <cc:Work
         rdf:about="">
        <dc:format>image/svg+xml</dc:format>
        <dc:type
           rdf:resource="http://purl.org/dc/dcmitype/StillImage" />
        <dc:title></dc:title>
      </cc:Work>
    </rdf:RDF>
  </metadata>
  <g
     id="layer1"
     inkscape:groupmode="layer"
     inkscape:label="Capa 1">
    <path
       id="path841"
       d="m 64.034465,255.03388 c -0.950942,-0.19045 -1.932972,-0.52888 -2.800685,-0.96516 -1.289681,-0.64844 -1.412893,-0.67719 -3.534936,-0.82466 -1.209274,-0.084 -3.105822,-0.19549 -4.214552,-0.24766 -1.748352,-0.0823 -2.094637,-0.14545 -2.609389,-0.47589 -0.326435,-0.20955 -0.943292,-0.46571 -1.370794,-0.56922 -1.106621,-0.26796 -3.215707,-1.38997 -4.116287,-2.1898 -0.422189,-0.37497 -1.066853,-0.7714 -1.432584,-0.88098 -0.43205,-0.12946 -0.837924,-0.41445 -1.158756,-0.81369 -0.480355,-0.59773 -0.522222,-0.61446 -1.538761,-0.61446 -0.955619,0 -1.103897,-0.0483 -1.734097,-0.56468 -0.49093,-0.40229 -0.765677,-0.79516 -0.95529,-1.36604 -0.231208,-0.69609 -0.387327,-0.87494 -1.188754,-1.36178 -0.507426,-0.30825 -1.282448,-0.93739 -1.722273,-1.39809 -1.718393,-1.8 -2.078459,-2.08424 -2.976823,-2.3499 -0.487842,-0.14427 -1.43127,-0.51322 -2.096508,-0.81991 -2.08394,-0.96072 -3.126729,-1.30272 -4.335106,-1.42179 -1.28244,-0.12637 -1.868571,-0.48257 -3.11743,-1.89443 l -0.598567,-0.67671 0.08956,-1.29016 c 0.123257,-1.77555 -0.146805,-2.40216 -1.229197,-2.85197 -0.747593,-0.31069 -0.856186,-0.43895 -2.003834,-2.36683 -0.810595,-1.36168 -1.592488,-2.42889 -2.355341,-3.21479 -0.628064,-0.64704 -1.351659,-1.50714 -1.607986,-1.91134 l -0.46605,-0.73489 0.0145,-2.92675 c 0.0164,-3.31245 -0.100915,-3.75675 -1.2608,-4.77515 -0.483721,-0.42471 -0.626127,-0.68659 -0.729726,-1.34196 -0.07954,-0.50315 -0.303062,-1.03511 -0.585018,-1.39228 -1.163838,-1.47426 -1.812004,-3.11659 -1.813357,-4.59469 -4.84e-4,-0.54046 -0.08,-1.26758 -0.176676,-1.61578 -0.12837,-0.46237 -0.126029,-0.88596 0.0087,-1.5707 0.174068,-0.88477 0.161308,-0.9771 -0.226499,-1.63884 -0.2867521,-0.48928 -0.4109751,-0.93643 -0.4109751,-1.47926 0,-0.79253 -0.366682,-1.60416 -1.258842,-2.78633 -0.356124,-0.47189 -0.388115,-0.63153 -0.298455,-1.48937 0.06666,-0.63774 0.270046,-1.26137 0.604884,-1.85467 l 0.50446,-0.89385 -0.318366,-0.76154 c -0.543002,-1.29888 -0.933523,-4.19045 -0.747606,-5.53557 0.182363,-1.31941 0.181098,-1.32214 -1.358638,-2.9156 l -0.8853903,-0.91628 0.2021263,-0.95246 c 0.154438,-0.72775 0.160189,-1.22275 0.02437,-2.09811 -0.2814381,-1.81391 -0.2133354,-2.97026 0.323771,-5.49743 0.364445,-1.71478 0.514824,-2.89118 0.550193,-4.30411 0.02677,-1.0694 0.137097,-2.39383 0.245173,-2.94317 0.147498,-0.74972 0.152371,-1.23008 0.01954,-1.92612 -0.182796,-0.95785 -0.131372,-1.57655 0.371959,-4.47523 0.138616,-0.79829 0.361309,-2.24972 0.494874,-3.2254 0.182511,-1.33324 0.3828,-2.07752 0.806169,-2.99579 0.309828,-0.672 0.666818,-1.76274 0.793312,-2.42386 0.126493,-0.66112 0.3072511,-1.40525 0.4016841,-1.65363 0.09443,-0.24838 0.425275,-1.62507 0.735205,-3.05932 0.309932,-1.43424 0.704259,-3.22457 0.876287,-3.97851 0.172027,-0.75394 0.391096,-2.00073 0.486819,-2.77066 0.09572,-0.76992 0.357827,-1.88813 0.582454,-2.48491 0.224627,-0.59678 0.700467,-2.24199 1.05742,-3.65602 0.555476,-2.20044 0.746818,-2.71389 1.327696,-3.5627 0.373278,-0.54546 0.851669,-1.42718 1.063089,-1.95937 0.747597,-1.88186 1.458053,-3.12505 2.318307,-4.0567 1.008699,-1.09242 1.475924,-1.93862 1.633544,-2.95853 0.233217,-1.50909 0.656889,-2.69656 1.339628,-3.75471 0.824775,-1.27829 1.309781,-2.34081 1.782776,-3.90561 0.382127,-1.26418 1.634669,-3.05524 3.938968,-5.6325 1.117459,-1.24982 1.435937,-1.50728 2.18242,-1.76425 0.814929,-0.28054 0.931577,-0.39009 1.725128,-1.6202 0.468103,-0.72562 1.481824,-2.11422 2.25271,-3.08578 2.862812,-3.60805 2.624697,-3.21328 2.750981,-4.560906 l 0.114,-1.21655 1.239777,-1.21991 c 0.681878,-0.67094 1.450014,-1.49857 1.70697,-1.83916 0.256954,-0.3406 0.894846,-0.92117 1.417536,-1.29016 5.624179,-3.97039 7.310995,-5.02099 8.329514,-5.18784 0.520936,-0.0853 0.910909,-0.30109 1.451429,-0.80299 0.406508,-0.37746 0.920533,-0.74136 1.142279,-0.80865 0.221746,-0.0673 0.838603,-0.34876 1.370794,-0.62546 0.663744,-0.34511 1.296816,-0.5333 2.015873,-0.59927 0.802949,-0.0737 1.565335,-0.32729 3.257891,-1.08379 1.218492,-0.54462 2.629091,-1.05552 3.144761,-1.13901 0.927495,-0.15015 1.760801,-0.44172 4.402427,-1.5404 0.753936,-0.31357 1.559003,-0.57135 1.789038,-0.57284 0.230036,-0.001 0.846893,-0.15467 1.370794,-0.34039 0.523901,-0.18572 1.53312,-0.40167 2.242707,-0.47988 1.20919,-0.13329 1.696564,-0.24638 3.830159,-0.8888 0.465666,-0.14021 1.736439,-0.31758 2.823936,-0.39415 1.859546,-0.13094 2.056384,-0.11541 3.306032,0.26088 2.225993,0.67027 4.168718,0.67969 8.747174,0.0424 1.136654,-0.15821 1.434069,-0.27612 2.499682,-0.99105 1.730658,-1.1611 2.015859,-1.40191 2.015994,-1.70216 9.7e-5,-0.2095 0.225999,-0.29151 1.048262,-0.38056 2.514067,-0.27225 3.637417,-0.89708 5.379717,-2.99225 0.68288,-0.82118 2.05632,-2.34518 3.05211,-3.38666 0.99578,-1.04149 2.23889,-2.45795 2.76249,-3.14769 0.93581,-1.23276 0.9869,-1.27121 3.00736,-2.26274 2.02816,-0.9953 2.06977,-1.02675 3.14197,-2.37449 1.49786,-1.88278 3.42731,-3.83709 5.16634,-5.23292 0.80542,-0.64648 1.96656,-1.73427 2.58032,-2.41733 0.62458,-0.69511 1.76453,-1.69704 2.58901,-2.27557 1.36012,-0.95436 1.5682,-1.04686 2.71312,-1.2061 1.01128,-0.14066 1.44482,-0.12589 2.35025,0.08 0.88247,0.20071 1.34416,0.21934 2.25043,0.0908 1.10711,-0.15702 1.16912,-0.14709 2.13877,0.34238 0.94069,0.47486 1.06996,0.49815 2.22901,0.40148 1.2142,-0.10126 1.25502,-0.0921 3.10043,0.69979 1.0285,0.44132 2.46448,0.95418 3.19103,1.13969 1.58119,0.40371 3.16503,1.1828 4.24646,2.08882 0.43575,0.36508 0.8819,0.62939 0.99144,0.58735 0.10953,-0.042 0.71346,-0.1271 1.34205,-0.18904 l 1.14289,-0.11262 0.49621,1.10916 c 0.80845,1.80707 1.92564,3.63442 2.74865,4.49583 0.42372,0.4435 1.20711,1.4595 1.74086,2.25778 1.32066,1.97516 1.71232,2.37943 2.86617,2.9585 l 0.99296,0.49831 0.42549,1.27764 0.42549,1.27764 1.08124,0.27014 c 1.4451,0.36104 2.82533,1.16074 3.90347,2.26162 1.31704,1.34483 2.12958,1.80232 3.4374,1.9354 0.60444,0.0615 1.1315,0.19656 1.17124,0.30013 0.0397,0.10356 -0.17235,1.27657 -0.47133,2.60668 l -0.54356,2.41839 0.30823,0.80635 c 0.81419,2.12998 1.48025,3.31659 2.18651,3.89532 0.50325,0.41237 0.86939,0.92267 1.24231,1.73136 0.29082,0.63066 0.7637,1.36436 1.05084,1.63046 0.28714,0.26609 0.80604,0.89902 1.15311,1.4065 0.55841,0.81652 0.68172,0.91323 1.07164,0.84044 0.24232,-0.0452 0.98489,-0.18458 1.65013,-0.30965 1.39705,-0.26264 1.35686,-0.28746 2.18952,1.35235 0.44463,0.87564 0.45926,0.98299 0.47656,3.4966 l 0.0179,2.59322 0.9755,1.8417 c 0.91514,1.727756 1.76638,4.020766 2.38855,6.434006 0.14809,0.57442 0.48056,1.44527 0.73885,1.93524 0.35514,0.67371 0.46969,1.10925 0.46996,1.78684 0,1.58078 0.81469,3.36123 2.57671,5.63545 0.39067,0.50425 0.8103,3.23944 0.8103,5.28178 0,1.12897 0.0761,1.62251 0.34311,2.22621 0.27803,0.62854 0.32533,0.966 0.24939,1.77923 -0.0851,0.91147 -0.0352,1.14683 0.54387,2.56459 0.52711,1.29052 0.63759,1.75108 0.63759,2.65791 0,0.72583 0.14136,1.55318 0.4179,2.44565 0.22984,0.74182 0.58178,1.96561 0.78208,2.71954 0.2003,0.75394 0.51266,1.66147 0.69414,2.01674 0.51247,1.00321 1.47578,3.45205 1.74424,4.43406 0.2772,1.01394 0.61859,5.40132 0.57395,7.37571 -0.0203,0.8989 0.0458,1.47475 0.20466,1.78196 0.33196,0.64193 0.87282,2.37592 1.06719,3.42138 0.0907,0.48784 0.59186,1.83041 1.11367,2.98349 1.27771,2.82329 1.45683,3.40407 1.7162,5.56381 0.12248,1.02003 0.36179,2.3626 0.53177,2.98349 0.39282,1.43475 0.57593,3.24493 0.34282,3.38899 -0.0944,0.0583 -0.26798,0.0261 -0.38574,-0.0716 -0.24939,-0.20697 -2.99717,-0.0477 -2.99717,0.17371 0,0.21522 -0.44843,0.16097 -0.52993,-0.0641 -0.0577,-0.1592 -0.14924,-0.15642 -0.43563,0.0132 -0.19944,0.11816 -0.41772,0.15445 -0.48506,0.0806 -0.24583,-0.26944 -0.62028,-1.77526 -0.71512,-2.87578 -0.16459,-1.91012 -0.74602,-5.4483 -1.00704,-6.12825 -0.16075,-0.41878 -0.26285,-1.32398 -0.29102,-2.58032 -0.0407,-1.81412 -0.0904,-2.07648 -0.79361,-4.19212 -0.69266,-2.08375 -0.81259,-2.32004 -1.56343,-3.08033 -0.44727,-0.4529 -0.98947,-1.20387 -1.20488,-1.66882 -0.27419,-0.5918 -0.89323,-1.33671 -2.06384,-2.48347 -1.49734,-1.46685 -1.76113,-1.81515 -2.52318,-3.33145 l -0.851,-1.69333 0.16083,-0.96763 c 0.12702,-0.76415 0.11075,-1.10326 -0.0774,-1.61269 -0.13104,-0.3548 -0.29722,-1.44843 -0.36934,-2.4303 -0.14187,-1.93175 -0.0515,-1.70195 -1.89776,-4.82685 -0.79806,-1.35076 -2.95132,-3.62521 -3.87112,-4.089 -1.0585,-0.53372 -1.93027,-1.41401 -2.3673,-2.3904 -0.20554,-0.45922 -0.76429,-1.29536 -1.24166,-1.85808 -0.47736,-0.56272 -1.11125,-1.38442 -1.40862,-1.826 -0.29738,-0.44157 -0.82523,-1.05686 -1.17301,-1.36731 -0.34779,-0.31044 -0.82694,-0.9261 -1.0648,-1.36813 -0.39093,-0.7265 -0.57252,-0.87364 -1.89084,-1.53206 -0.80209,-0.40061 -1.96323,-1.09969 -2.58032,-1.55352 -1.33828,-0.98426 -1.5359,-1.08787 -2.54429,-1.33392 -0.42751,-0.10431 -1.04436,-0.36516 -1.37079,-0.57965 -0.32697,-0.21485 -1.03871,-0.46079 -1.58481,-0.54765 -0.54523,-0.0867 -1.34351,-0.30932 -1.77397,-0.49468 -0.6594,-0.28395 -0.83035,-0.45261 -1.08538,-1.07081 -0.21296,-0.51618 -0.49989,-0.85749 -0.96762,-1.15094 -0.36571,-0.22945 -1.18112,-0.87768 -1.81204,-1.44052 -1.1331,-1.01085 -1.15871,-1.02337 -2.09651,-1.02395 l -0.94938,-6.5e-4 -0.52642,-1.00734 c -0.92142,-1.76323 -0.95441,-1.78868 -2.05416,-1.58538 -1.04809,0.19375 -0.87977,0.26215 -2.42748,-0.98658 -0.76695,-0.61878 -1.09933,-0.7782 -1.8069,-0.8666 -0.86236,-0.10775 -0.86911,-0.11298 -1.24586,-0.96485 -0.332,-0.75075 -0.46091,-0.88113 -1.04381,-1.05577 -0.69184,-0.20728 -1.23977,-0.81995 -2.15999,-2.415196 -0.33062,-0.57315 -0.64832,-0.85337 -1.41708,-1.24984 -0.54499,-0.28108 -1.08167,-0.51105 -1.1926,-0.51105 -0.11092,0 -0.55248,-0.28988 -0.98122,-0.64416 -0.42873,-0.35429 -1.11434,-0.75537 -1.52358,-0.8913 -0.40922,-0.13592 -0.94236,-0.45412 -1.18473,-0.7071 -0.34859,-0.36385 -0.63765,-0.48225 -1.38333,-0.56661 -0.58005,-0.0656 -1.10718,-0.23608 -1.37042,-0.44314 -0.43412,-0.34148 -2.11441,-1.03728 -3.8729,-1.60374 -0.53219,-0.17143 -1.47562,-0.55562 -2.0965,-0.85375 -2.74304,-1.31711 -3.26711,-1.53354 -3.95112,-1.63171 -1.66757,-0.23933 -3.82828,-0.94699 -5.15716,-1.68903 -1.54329,-0.86177 -1.89994,-0.95129 -4.51903,-1.13429 -1.95942,-0.1369 -3.7771,-0.37463 -5.02871,-0.65768 -0.73244,-0.16564 -0.78318,-0.1518 -1.69333,0.46169 -1.72646,1.16374 -2.3907,1.47813 -3.84616,1.82044 -0.79551,0.1871 -2.07766,0.51614 -2.84919,0.73119 -1.336968,0.37266 -1.446277,0.37968 -2.329501,0.14963 -0.509694,-0.13276 -1.201309,-0.4231 -1.536925,-0.6452 -0.718939,-0.47572 -1.307771,-0.50281 -3.519983,-0.16186 -0.842635,0.12986 -1.894921,0.23769 -2.338413,0.23961 -0.517224,0.002 -0.995933,0.11909 -1.335088,0.32587 -0.395937,0.2414 -0.882003,0.33581 -1.935238,0.3759 -1.615737,0.0615 -2.240103,0.31589 -3.577999,1.4579 -0.585013,0.49936 -1.0537,0.75616 -1.514933,0.83004 -1.656748,0.2654 -4.306071,1.97146 -5.100526,3.28453 -0.256157,0.42338 -0.518206,0.66283 -0.725715,0.66314 -0.178632,3.2e-4 -0.999263,-0.2606 -1.823626,-0.57971 l -1.498839,-0.5802 -1.258282,0.50721 c -0.835821,0.33692 -1.467097,0.72107 -1.880238,1.14416 l -0.621958,0.63694 h -1.585554 -1.585555 l -1.082985,1.10128 c -1.481018,1.50604 -3.261094,2.479406 -4.437752,2.426636 -1.047835,-0.047 -1.672154,0.22355 -3.015393,1.30673 -0.607928,0.49022 -2.123708,1.38444 -3.608512,2.1288 -2.417155,1.21176 -2.637998,1.36257 -3.951111,2.69814 -1.033832,1.05151 -1.661797,1.54349 -2.44638,1.91661 -0.676762,0.32185 -1.243074,0.73535 -1.578177,1.15234 -0.287457,0.35771 -1.031803,1.05662 -1.654101,1.55314 -1.693114,1.35091 -3.774669,3.45214 -4.142564,4.18172 -0.178906,0.35479 -0.848241,1.29822 -1.487408,2.09651 -0.639169,0.79828 -1.455438,1.94492 -1.813929,2.54809 -0.360696,0.60687 -1.102183,1.5072 -1.660212,2.01587 -0.726691,0.66242 -1.172677,1.24856 -1.596424,2.09812 -0.546325,1.09531 -0.580254,1.24753 -0.478512,2.1468 0.10419,0.92092 0.08616,0.99287 -0.371464,1.48205 -1.057282,1.13021 -1.300266,1.60647 -1.496491,2.93319 -0.241903,1.63555 -0.386322,2.00693 -1.221769,3.14181 -0.501654,0.68144 -0.875445,1.00447 -1.42289,1.22963 -0.736468,0.30291 -0.742501,0.31166 -0.743101,1.07785 -6.45e-4,0.89906 -0.482943,1.95997 -1.109228,2.44025 -0.7481,0.57369 -1.643983,1.6093 -1.894374,2.18983 -0.133901,0.31045 -0.413575,1.25388 -0.621502,2.09651 -0.207925,0.84264 -0.667788,2.14892 -1.021915,2.90286 -0.773894,1.64761 -1.159088,2.76078 -1.159903,3.35199 -3.22e-4,0.24082 -0.13646,0.66064 -0.302508,0.93294 -0.166048,0.2723 -0.507495,1.2883 -0.758773,2.25778 -0.396956,1.53154 -0.457739,2.06933 -0.463522,4.1011 -0.0063,2.20244 0.0183,2.39165 0.422513,3.25392 0.357733,0.76311 0.406013,1.01813 0.29005,1.53206 -0.07662,0.33955 -0.07911,1.4209 -0.0056,2.40683 0.114847,1.53948 0.213881,1.96871 0.706963,3.06412 0.612594,1.36092 0.730538,1.7961 1.188567,4.38549 l 0.293668,1.6602 1.048254,0.57497 c 0.576539,0.31624 1.458911,0.87543 1.960826,1.24266 1.121605,0.82062 1.32623,1.35465 1.337279,3.48991 0.0047,0.91585 0.08901,1.67374 0.209514,1.88432 0.110873,0.19374 0.201587,0.67934 0.201587,1.07909 0,0.68922 -0.04575,0.76258 -0.883743,1.41706 -1.250165,0.9764 -1.409466,1.44756 -1.127526,3.3349 0.12177,0.81514 0.277757,1.57166 0.346635,1.68113 0.06888,0.10948 0.136264,0.5982 0.149741,1.08604 0.01555,0.56244 0.187689,1.27051 0.470509,1.93523 0.419494,0.98594 0.434744,1.10296 0.256531,1.96846 -0.104213,0.5061 -0.141658,1.12296 -0.08321,1.3708 0.141524,0.6001 0.779617,1.2709 1.728691,1.8173 0.548282,0.31565 1.022982,0.80045 1.612699,1.64703 0.459638,0.65985 1.204231,1.61291 1.654651,2.11789 0.450418,0.50499 1.152287,1.40754 1.559707,2.00564 0.690673,1.01395 0.732277,1.13329 0.615288,1.76487 -0.112199,0.6057 -0.08099,0.71878 0.294896,1.06878 0.231204,0.21527 0.793618,0.51242 1.249812,0.66034 0.803872,0.26064 0.832775,0.29115 0.9376,0.9902 0.0805,0.5368 0.227705,0.80963 0.575601,1.06684 0.506122,0.3742 0.849581,1.51318 0.777782,2.5793 -0.02625,0.38984 0.08744,0.72465 0.37752,1.11178 0.850313,1.13476 0.946688,1.46504 0.683084,2.34093 l -0.236984,0.78745 0.556344,0.48674 c 0.305988,0.26773 0.700874,0.78084 0.877524,1.14026 0.17665,0.35944 0.643037,1.01258 1.036416,1.45143 0.393381,0.43886 0.843913,1.05193 1.001183,1.36238 0.157269,0.31044 0.666752,0.96683 1.132182,1.45862 0.465431,0.49179 0.993398,1.18122 1.17326,1.53206 0.595288,1.16116 2.293293,2.29771 3.832294,2.56513 0.949033,0.1649 1.005279,0.20395 2.177143,1.51176 0.661619,0.73837 1.356379,1.5966 1.543914,1.90717 0.187534,0.31058 0.594774,0.77387 0.904977,1.02957 0.310204,0.25571 0.653102,0.68001 0.761996,0.94289 0.368687,0.8901 2.889907,2.59946 3.83405,2.59946 0.626024,0 1.627002,0.56585 2.317677,1.31019 0.388454,0.41864 0.719239,0.62505 1.001653,0.62505 0.434406,0 1.00659,0.48444 1.166218,0.98739 0.06101,0.19222 0.327346,0.32094 0.815493,0.39414 0.509684,0.0764 1.174477,0.41142 2.239195,1.12828 0.832865,0.56077 1.7763,1.06874 2.096522,1.12881 0.420534,0.0789 0.690269,0.26822 0.971274,0.68177 0.42802,0.62988 1.267561,1.32497 3.224893,2.67 1.285855,0.88359 3.624701,1.87781 4.42547,1.88119 0.226944,0.002 0.752779,0.10497 1.168523,0.23115 1.107874,0.33622 2.865824,0.47376 3.569954,0.27935 0.642874,-0.17751 1.896426,-0.0404 3.4151,0.37339 0.443492,0.12086 1.677207,0.26924 2.741588,0.32973 1.565841,0.089 2.042979,0.17592 2.499682,0.45527 0.489344,0.29931 0.821929,0.34731 2.499682,0.36073 1.064381,0.009 2.154336,0.0894 2.422122,0.17965 0.307562,0.1037 0.842127,0.11283 1.451428,0.0248 0.530501,-0.0767 1.871688,-0.096 2.980418,-0.043 1.998313,0.0955 2.026083,0.092 3.188773,-0.40847 0.87408,-0.37621 1.51092,-0.52748 2.49968,-0.59374 0.89502,-0.06 1.72038,-0.23881 2.53631,-0.54956 1.24016,-0.47231 2.25168,-0.69993 3.95111,-0.88907 0.53219,-0.0592 1.42983,-0.28166 1.99476,-0.49427 0.56491,-0.21261 1.15647,-0.38657 1.31453,-0.38657 0.41982,0 4.3345,-1.24255 4.7353,-1.50302 0.1878,-0.12205 1.32115,-0.60674 2.51858,-1.07712 1.85685,-0.72939 2.33434,-0.99315 3.24554,-1.79275 0.58761,-0.51565 1.24759,-1.01918 1.46662,-1.11899 0.21904,-0.0998 0.54564,-0.48338 0.7258,-0.85239 0.26746,-0.54784 0.61982,-0.85239 1.92004,-1.65963 1.55974,-0.96833 2.80532,-1.51102 3.46814,-1.51102 0.18279,0 0.53026,-0.14093 0.77218,-0.3132 0.2419,-0.17225 0.8271,-0.36457 1.30043,-0.42735 0.77156,-0.10236 0.96217,-0.21413 1.84282,-1.0807 0.54023,-0.53159 1.27451,-1.15571 1.63174,-1.38692 1.36908,-0.88618 4.44532,-3.77512 6.90172,-6.48152 0.51655,-0.56912 1.17971,-1.28875 1.47368,-1.5992 1.057,-1.11618 2.22192,-2.8192 2.83264,-4.14113 0.34217,-0.7406 0.76141,-1.5451 0.93164,-1.78778 0.17026,-0.24269 0.3463,-0.77991 0.39123,-1.19383 0.0602,-0.55428 0.28917,-1.05491 0.86907,-1.89997 1.18618,-1.72858 1.49892,-2.40962 1.50642,-3.28053 0.006,-0.73897 0.45228,-1.90747 0.81299,-2.13041 0.29524,-0.18246 0.76298,-1.26585 0.97478,-2.25777 0.24194,-1.13315 0.36868,-1.4126 0.99518,-2.1945 0.25639,-0.31999 0.56175,-0.93685 0.67856,-1.37079 0.11681,-0.43395 0.48926,-1.47843 0.82765,-2.32106 l 0.61525,-1.53207 0.0269,-3.22539 0.0269,-3.2254 -0.45045,-0.66042 c -0.3709,-0.54383 -0.48442,-0.95667 -0.64296,-2.33841 l -0.19254,-1.678 0.51045,-0.81562 c 0.28075,-0.4486 0.56863,-1.18359 0.63972,-1.63332 0.0711,-0.44974 0.28664,-1.01778 0.47899,-1.26231 0.19236,-0.24455 0.34975,-0.54827 0.34975,-0.67495 0,-0.12667 0.22074,-0.68801 0.49055,-1.24742 0.68992,-1.43053 0.74172,-1.95628 0.3182,-3.22901 -0.25445,-0.76461 -0.3287,-1.26769 -0.25826,-1.74971 0.24226,-1.65776 0.28858,-3.78137 0.0905,-4.1514 -0.11402,-0.21306 -0.18901,-0.85085 -0.17329,-1.47389 0.0312,-1.2377 -0.007,-1.33394 -1.0925,-2.75021 -0.43045,-0.5616 -0.91445,-1.2725 -1.07558,-1.57979 -0.29867,-0.56963 -0.60465,-2.21527 -0.86852,-4.6711 -0.20561,-1.91367 -0.66525,-3.20633 -1.31889,-3.7092 -1.29995,-1.00011 -2.32911,-2.31802 -2.4724,-3.16609 -0.20088,-1.189 -0.99137,-1.88072 -2.53984,-2.22248 -0.34632,-0.0764 -0.44344,-0.20075 -0.48381,-0.61925 -0.0455,-0.47196 -0.11701,-0.53757 -0.72486,-0.66515 -0.5113,-0.10731 -0.71782,-0.24649 -0.85416,-0.57564 -0.11055,-0.26692 -0.56548,-0.65971 -1.18119,-1.01989 -1.05275,-0.61583 -1.56393,-1.25625 -1.56393,-1.95931 0,-0.32465 -0.13277,-0.48454 -0.57915,-0.6974 -0.54626,-0.26049 -0.5737,-0.31036 -0.48297,-0.87776 0.0882,-0.55173 0.0393,-0.65524 -0.59004,-1.24924 -0.53243,-0.5025 -0.81479,-0.64857 -1.25968,-0.6517 -0.35342,-0.002 -0.78309,-0.15871 -1.11991,-0.4072 -0.30056,-0.22175 -0.75935,-0.40318 -1.01954,-0.40318 -0.31514,0 -0.83619,-0.26918 -1.56077,-0.80635 -0.96785,-0.71749 -1.17742,-0.80635 -1.90184,-0.80635 -0.78082,0 -0.81866,-0.0206 -0.9249,-0.50436 -0.0783,-0.3564 -0.24762,-0.55601 -0.57725,-0.68043 -0.40116,-0.15143 -0.46649,-0.26146 -0.46649,-0.78581 0,-0.7143 -0.17174,-0.75363 -1.6127,-0.36933 -0.88431,0.23584 -0.8909,0.23487 -2.18367,-0.3198 -0.94288,-0.40455 -1.44892,-0.53466 -1.85461,-0.47684 -0.87843,0.12519 -1.35042,-0.37198 -1.30468,-1.37433 0.0431,-0.94414 -0.21712,-1.10153 -1.23012,-0.74412 -0.62752,0.2214 -0.67116,0.21582 -0.88991,-0.11361 -0.22939,-0.34548 -0.23184,-0.3456 -0.90186,-0.0435 -0.55482,0.25019 -0.73562,0.26883 -1.03794,0.10704 -0.30696,-0.16428 -0.55064,-0.12936 -1.50847,0.21615 -0.6283,0.22664 -1.31501,0.41367 -1.52603,0.41562 -0.70625,0.007 -1.67904,0.58734 -2.37408,1.41748 -0.75712,0.9043 -2.10412,1.96564 -2.4947,1.96564 -0.13691,0 -0.7362,0.254 -1.3318,0.56445 -0.83857,0.43709 -1.27503,0.56444 -1.93445,0.56444 -0.83788,0 -0.8547,-0.01 -1.04708,-0.59243 -0.12419,-0.37633 -0.16106,-1.03922 -0.10106,-1.81726 l 0.0945,-1.22482 -0.59549,-0.31957 c -0.53746,-0.28842 -0.60894,-0.40602 -0.73336,-1.20655 -0.0758,-0.48785 -0.26783,-1.03213 -0.42672,-1.20953 -0.1727,-0.19284 -0.39972,-0.93863 -0.56455,-1.8546 -0.35564,-1.97635 -0.34036,-1.93524 -0.71938,-1.93524 -0.17812,0 -0.44469,-0.18437 -0.59234,-0.40972 -0.45048,-0.68752 -0.80577,-0.78534 -1.37647,-0.37897 -0.47556,0.33863 -0.52481,0.34335 -1.00368,0.0963 -0.27697,-0.1429 -0.92077,-0.30792 -1.43068,-0.3667 l -0.92709,-0.10688 -0.50393,1.07688 c -0.45153,0.96491 -0.54835,1.07221 -0.93118,1.03206 -0.23497,-0.0246 -0.66088,0.052 -0.94644,0.17024 -0.29504,0.12221 -0.711216,0.16923 -0.963958,0.1089 -0.244614,-0.0584 -0.553607,-0.11249 -0.686654,-0.12024 -0.381391,-0.0222 -1.124541,-0.79255 -1.529671,-1.58565 -0.203888,-0.39914 -0.50555,-0.84369 -0.670358,-0.98788 -0.427172,-0.37373 -1.852748,-0.31791 -2.303704,0.0902 -0.336536,0.30456 -0.347224,0.30375 -0.844515,-0.0639 l -0.503665,-0.37238 -0.259124,0.32891 c -0.336362,0.42695 -1.44531,0.60719 -2.201128,0.35775 -0.494828,-0.16331 -0.621999,-0.15082 -0.884677,0.0869 -0.188458,0.17056 -0.463294,0.24771 -0.712598,0.20005 -0.361751,-0.0691 -0.415463,-0.0144 -0.49461,0.50425 -0.163753,1.07306 -0.313936,1.38632 -0.69047,1.44023 -0.199971,0.0286 -0.481431,0.23191 -0.625464,0.45173 -0.144035,0.21983 -0.468112,0.50633 -0.72017,0.63667 -0.429465,0.22209 -0.500551,0.20903 -1.130224,-0.20767 -0.49631,-0.32844 -0.8737,-0.44523 -1.443871,-0.44682 -0.654816,-0.002 -0.856077,-0.0837 -1.326517,-0.53951 -0.489511,-0.47431 -0.593072,-0.51332 -0.882616,-0.3325 -0.282815,0.17663 -0.418629,0.14491 -0.985234,-0.23005 l -0.657201,-0.43491 -0.323917,0.32391 c -0.178154,0.17816 -0.323916,0.45291 -0.323916,0.61058 0,0.15766 -0.127,0.46271 -0.282223,0.67789 -0.155222,0.21518 -0.536222,0.86633 -0.846666,1.44699 -0.536321,1.00316 -0.59079,1.05312 -1.093203,1.0028 -0.403131,-0.0404 -0.658917,0.0613 -1.076593,0.42805 -0.301308,0.26455 -0.789082,0.53262 -1.083939,0.59571 -0.294858,0.0631 -0.616104,0.17888 -0.713881,0.25733 -0.09778,0.0785 -0.627883,0.18968 -1.178016,0.24718 -0.92512,0.0967 -1.006827,0.13747 -1.087909,0.54287 -0.151796,0.75898 -0.740081,1.21654 -1.976394,1.5372 -1.093017,0.28349 -1.160794,0.32918 -1.486571,1.00214 -0.278438,0.57518 -0.498672,0.7747 -1.195111,1.0827 -0.897428,0.39688 -1.203621,0.7631 -1.203621,1.43959 0,0.69609 -0.485846,1.48937 -1.088062,1.77654 -0.871233,0.41546 -1.613535,1.03865 -2.005576,1.68374 -0.196381,0.32315 -0.559541,0.84354 -0.807023,1.15644 -0.247481,0.31289 -0.518739,0.89346 -0.602794,1.29015 -0.349441,1.64916 -0.526814,2.15063 -0.959017,2.71135 -0.250223,0.32462 -0.537454,0.88486 -0.63829,1.24497 -0.100836,0.3601 -0.365986,0.82632 -0.589223,1.03605 -0.223238,0.20972 -0.406334,0.49566 -0.406881,0.63542 -4.84e-4,0.13976 -0.10669,0.45674 -0.235875,0.70441 -0.307032,0.58863 -0.382837,1.06841 -0.565862,3.58144 -0.152293,2.09107 -0.487675,3.47058 -1.053821,4.33463 -0.149715,0.22849 -0.268113,0.68925 -0.263104,1.0239 0.005,0.33465 -0.07183,0.98935 -0.17075,1.45488 -0.150726,0.70933 -0.133587,0.99924 0.105826,1.78997 0.201641,0.66597 0.253962,1.17607 0.17785,1.7339 -0.05931,0.43469 -0.135157,1.24077 -0.168551,1.79129 -0.04322,0.71256 -0.184028,1.21137 -0.488715,1.73128 -0.407792,0.69585 -0.425441,0.81872 -0.373749,2.60193 l 0.05425,1.8716 0.604762,0.48483 c 0.332619,0.26666 0.605472,0.60478 0.606338,0.7514 8.06e-4,0.14661 0.170307,0.62944 0.376536,1.07293 0.208589,0.44857 0.420287,1.29385 0.477113,1.90507 0.08505,0.91474 0.049,1.19788 -0.215266,1.69094 -0.645376,1.20412 -0.275634,2.39583 0.920586,2.96711 0.595046,0.28417 0.872625,0.54853 1.181042,1.12476 0.221746,0.4143 0.675318,1.19833 1.007937,1.74229 0.394851,0.64573 0.604762,1.18468 0.604762,1.55271 0,0.49499 0.0737,0.59718 0.604762,0.83854 0.332619,0.15116 0.81258,0.46594 1.06658,0.69951 0.254,0.23355 0.600982,0.54401 0.771072,0.68991 0.170088,0.1459 0.354118,0.4896 0.408953,0.76377 0.07957,0.39784 0.247026,0.56367 0.829259,0.82122 0.617125,0.27298 0.930294,0.30666 2.032085,0.21849 l 1.302527,-0.10424 0.450367,0.56813 c 0.371146,0.4682 0.556316,0.56814 1.052688,0.56814 0.331276,0 0.772494,0.1192 0.980485,0.26489 0.331049,0.23187 0.367088,0.35745 0.289241,1.00793 -0.04891,0.40868 -0.138129,0.87005 -0.198267,1.02528 -0.08246,0.21282 -0.02766,0.28222 0.222866,0.28222 0.566421,0 1.123617,0.34431 1.318468,0.81472 l 0.186537,0.45034 1.114234,-0.72079 c 0.612827,-0.39644 1.44302,-0.81975 1.844873,-0.94069 0.805609,-0.24245 3.17832,-1.54682 5.115816,-2.81235 2.461226,-1.60762 3.262732,-1.80958 2.551477,-0.64292 -0.418208,0.68598 -0.417321,0.69777 0.06931,0.91948 0.221746,0.10104 0.403175,0.29041 0.403175,0.42083 0,0.20801 0.06871,0.20843 0.559264,0.004 0.687058,-0.28707 1.28334,-0.29985 1.498386,-0.0321 0.190877,0.23767 0.317242,0.97625 0.495977,2.89891 0.08763,0.94267 0.220093,1.50581 0.401291,1.70602 0.148763,0.16439 0.270478,0.43924 0.270478,0.6108 0,0.17156 0.140238,0.38356 0.311638,0.47112 0.171401,0.0875 0.706723,0.36938 1.189606,0.62629 l 0.877969,0.46708 0.660563,-0.53083 c 0.55819,-0.44857 0.69959,-0.49846 0.912398,-0.32183 0.351926,0.29206 0.90326,-0.0261 1.705466,-0.98427 0.68534,-0.81857 1.160004,-1.0452 1.452051,-0.69331 0.102819,0.1239 0.313342,0.22526 0.467829,0.22526 0.184325,0 0.376157,0.24947 0.558036,0.72572 0.262916,0.68844 0.595792,0.91899 0.81492,0.56444 0.191016,-0.30907 0.526721,-0.15787 0.727911,0.32785 0.185028,0.44668 0.226283,0.46766 0.475756,0.2419 0.150237,-0.13597 0.376987,-0.24721 0.503889,-0.24721 0.126903,0 0.326034,-0.15261 0.442518,-0.33912 0.156246,-0.25019 0.332424,-0.32143 0.67181,-0.27161 0.459296,0.0674 0.460441,0.0654 0.71407,-1.30199 0.139725,-0.75325 0.364532,-1.53816 0.499582,-1.74428 0.28043,-0.42798 0.74995,-0.4877 1.04446,-0.13284 0.11043,0.13305 0.37438,0.2419 0.58656,0.2419 0.26545,0 0.48057,0.16352 0.68956,0.52413 1.0359,1.7874 1.36276,2.18363 1.65224,2.00284 0.22579,-0.14101 0.38959,-0.10015 0.79248,0.19772 l 0.50784,0.37545 0.33205,-0.33205 0.33206,-0.33206 0.45536,0.32425 c 0.25045,0.17833 0.51788,0.28561 0.59429,0.23839 0.0764,-0.0472 0.30727,0.0933 0.51303,0.31233 0.20575,0.21902 0.47499,0.39821 0.5983,0.39821 0.12332,0 0.5777,0.15206 1.00974,0.33792 0.76684,0.32988 0.79509,0.33085 1.18848,0.0403 0.22163,-0.16368 0.44988,-0.47863 0.50719,-0.69987 0.15895,-0.61359 0.39053,-0.80726 0.96527,-0.80726 0.28872,0 0.61219,-0.10511 0.71881,-0.2336 0.10663,-0.12846 0.52988,-0.25546 0.94056,-0.28222 0.64563,-0.042 0.75942,-0.1032 0.84063,-0.4518 0.12033,-0.51632 0.83872,-0.8635 1.71799,-0.83025 0.46803,0.0177 0.72738,-0.0524 0.8224,-0.22213 0.0763,-0.13638 0.41975,-0.29357 0.76319,-0.34931 0.5155,-0.0837 0.92669,-0.39559 2.35743,-1.78843 1.66556,-1.62146 2.50213,-2.78741 2.97433,-4.14544 0.0929,-0.26731 0.24831,-0.66745 0.34523,-0.8892 0.42464,-0.97141 0.68759,-1.75374 0.86729,-2.58032 0.10607,-0.48784 0.39194,-1.39498 0.63526,-2.01587 0.24333,-0.62089 0.53803,-1.38289 0.65489,-1.69333 0.20691,-0.54962 0.23297,-1.4962 0.18212,-6.61255 -0.016,-1.6007 -0.1062,-2.3487 -0.43799,-3.62857 -1.2198,-4.70524 -3.60127,-8.74751 -6.90535,-11.72099 -3.36037,-3.02412 -6.50692,-4.67224 -10.59766,-5.55088 -1.81976,-0.39086 -5.53697,-0.39135 -7.24866,-9.6e-4 -2.192784,0.50014 -2.298008,0.50778 -2.233232,0.16213 0.04431,-0.23645 0.387068,-0.39357 1.508151,-0.69136 1.942781,-0.51607 6.030201,-0.58 8.143501,-0.12738 4.06413,0.87044 7.37712,2.59775 10.80508,5.63348 6.87896,6.09187 9.90177,17.35379 7.32613,27.29451 -0.32175,1.24178 -0.6734,2.72949 -0.78145,3.30603 -0.10803,0.57654 -0.28422,1.21051 -0.39151,1.40881 -0.10728,0.19829 -0.25934,0.67001 -0.33791,1.04825 -0.15247,0.73407 -0.85614,2.55364 -1.70038,4.39691 -0.28437,0.62089 -0.60164,1.47257 -0.70501,1.89263 -0.24978,1.01485 -1.7477,3.95588 -2.11489,4.15241 -0.26765,0.14324 -0.56148,0.5458 -1.35017,1.8498 -0.1634,0.27015 -0.46194,0.67262 -0.66345,0.89437 -0.20151,0.22174 -0.44822,0.64814 -0.54825,0.94754 -0.19886,0.59523 -1.411,1.87247 -2.24094,2.36133 -0.28839,0.16986 -0.56867,0.45644 -0.62287,0.63682 -0.0542,0.18038 -0.26508,0.50938 -0.46861,0.73113 -0.20354,0.22175 -0.47466,0.65718 -0.60252,0.96762 -0.374,0.90806 -1.0542,1.6127 -1.55682,1.6127 -0.27024,0 -0.69526,0.21812 -1.09987,0.56444 -0.36268,0.31045 -0.77302,0.56445 -0.91187,0.56445 -0.13884,0 -0.37053,0.22837 -0.51487,0.5075 -0.14435,0.27911 -0.68009,0.89414 -1.19054,1.36674 -0.65769,0.60891 -1.02287,1.1071 -1.25339,1.70996 l -0.32531,0.85072 -0.90234,-0.004 c -0.79566,-0.003 -0.96581,-0.0654 -1.43916,-0.52413 -0.50068,-0.48528 -0.61231,-0.52021 -1.65803,-0.51885 -1.06411,0.002 -1.14261,-0.0246 -1.54156,-0.50994 -0.24213,-0.29457 -0.51619,-0.47463 -0.64639,-0.42467 -0.1243,0.0477 -0.55201,0.6793 -0.950441,1.40355 -0.714118,1.29811 -0.737003,1.32041 -1.611392,1.57036 -1.019765,0.29151 -1.419318,0.61315 -2.121972,1.70814 -0.365278,0.56923 -0.574275,0.75574 -0.762942,0.68085 -0.142915,-0.0567 -0.63219,-0.18265 -1.087276,-0.27984 -0.694488,-0.14828 -0.945991,-0.1314 -1.565354,0.10515 -0.710159,0.27121 -0.764078,0.27024 -1.432891,-0.0256 -0.593583,-0.26256 -1.030024,-0.30199 -2.99173,-0.2703 -1.708671,0.0276 -2.390264,0.0984 -2.661931,0.27637 -0.200842,0.13159 -0.664856,0.28989 -1.03114,0.35177 -0.623222,0.1053 -0.684752,0.0807 -0.958551,-0.38279 -0.193662,-0.32784 -0.419838,-0.49529 -0.668992,-0.49529 -0.412652,0 -1.24635,-0.38035 -1.693691,-0.77271 -0.332381,-0.29152 -1.872253,-0.38598 -2.649519,-0.16252 -0.373833,0.10748 -0.635361,0.0854 -0.951592,-0.0803 -0.38904,-0.20385 -0.592319,-0.18779 -1.88457,0.14888 -0.796671,0.20755 -1.819883,0.42598 -2.273805,0.48541 -0.453922,0.0594 -1.116258,0.232 -1.471856,0.38351 -0.474356,0.20211 -0.753529,0.23462 -1.048254,0.12208 -0.261528,-0.0999 -0.869569,-0.0894 -1.742411,0.0299 l -1.340699,0.18325 -0.876761,-0.93457 c -0.482218,-0.51402 -0.87676,-1.01223 -0.87676,-1.1071 0,-0.0949 -0.112084,-0.54996 -0.249078,-1.01126 -0.215527,-0.72576 -0.364694,-0.9155 -1.107443,-1.40866 -0.803148,-0.53325 -0.864389,-0.62078 -0.951992,-1.36046 -0.05149,-0.43478 -0.21307,-0.97281 -0.359056,-1.19562 -0.192725,-0.29414 -0.23601,-0.57923 -0.15802,-1.04085 0.07452,-0.44111 0.02976,-0.78592 -0.146198,-1.1262 -0.317524,-0.61401 -0.322509,-1.92882 -0.01171,-3.08675 0.345098,-1.28571 0.319663,-2.7825 -0.05302,-3.11976 -0.162207,-0.14681 -0.462068,-0.26691 -0.666362,-0.26691 -0.602006,0 -1.406874,-0.59221 -1.51075,-1.11158 -0.07036,-0.35181 -0.269711,-0.55048 -0.819262,-0.81652 -0.815133,-0.3946 -1.708064,-1.31728 -1.708064,-1.76496 0,-0.16235 -0.145142,-0.4797 -0.322539,-0.70523 -0.187831,-0.23878 -0.32254,-0.65424 -0.32254,-0.99473 0,-0.32157 -0.181428,-0.94272 -0.403175,-1.38031 -0.221746,-0.43759 -0.403174,-0.89961 -0.403174,-1.02669 0,-0.1271 -0.290286,-0.61743 -0.645079,-1.08961 -0.354794,-0.47218 -0.64508,-1.02383 -0.64508,-1.22589 0,-0.21586 -0.262228,-0.62186 -0.63583,-0.98442 -0.533329,-0.51758 -0.653904,-0.75804 -0.747938,-1.49157 -0.168836,-1.31704 -0.649482,-2.07019 -2.209495,-3.46217 -1.08017,-0.96383 -1.529634,-1.49543 -1.89462,-2.24083 l -0.478499,-0.97723 0.321006,-1.04826 c 0.431008,-1.40746 0.409222,-2.3087 -0.08128,-3.36236 -0.22088,-0.47447 -0.401599,-1.00303 -0.401599,-1.17456 0,-0.35331 -0.67842,-1.75389 -1.174697,-2.42514 -0.289899,-0.39212 -0.336967,-0.73498 -0.386994,-2.81892 -0.04395,-1.83069 0.0019,-2.57511 0.200926,-3.2596 0.141835,-0.4879 0.286512,-1.61779 0.321504,-2.51087 0.03499,-0.89308 0.137999,-1.87731 0.228902,-2.18717 0.246738,-0.84103 0.201179,-1.55624 -0.141982,-2.22889 -0.281116,-0.55103 -0.2957,-0.80008 -0.171388,-2.92687 0.07473,-1.27852 0.09694,-2.51927 0.04935,-2.75722 -0.04759,-0.23796 0.01547,-0.62731 0.140119,-0.86522 0.178024,-0.33977 0.19539,-0.69886 0.08095,-1.67375 -0.173881,-1.48123 0.06645,-3.25003 0.530042,-3.90109 0.171158,-0.24037 0.388182,-0.79251 0.482275,-1.22697 0.270714,-1.24998 0.504666,-1.71147 1.226466,-2.41933 0.534495,-0.52417 0.692237,-0.8092 0.758633,-1.37079 0.176081,-1.48933 0.437827,-2.27233 0.965805,-2.88915 0.294267,-0.34379 0.667621,-1.04569 0.829675,-1.55978 0.219501,-0.69634 0.556726,-1.22755 1.322295,-2.08294 0.565207,-0.63152 1.02765,-1.25139 1.02765,-1.37748 0,-0.1261 0.145143,-0.64222 0.32254,-1.14695 0.177397,-0.50472 0.322539,-1.32224 0.322539,-1.8167 0,-1.08565 0.234155,-1.57282 1.26429,-2.63042 0.432587,-0.44412 0.988521,-1.12678 1.235409,-1.51703 0.307435,-0.48595 0.683071,-0.81823 1.192055,-1.05446 1.215181,-0.564 2.865829,-2.31778 3.589039,-3.81328 0.341786,-0.70678 0.621429,-1.38431 0.621429,-1.50563 0,-0.12132 0.365762,-0.57685 0.812804,-1.01229 0.561539,-0.54695 0.88281,-1.0243 1.039264,-1.54416 0.124554,-0.41386 0.475056,-1.1596 0.778896,-1.6572 0.680427,-1.11434 0.82585,-1.58426 1.152573,-3.72439 0.230034,-1.50678 0.313546,-1.74795 0.767453,-2.21626 0.280134,-0.28903 0.658902,-0.57195 0.841711,-0.62873 0.182809,-0.0568 0.600191,-0.34349 0.927519,-0.63716 0.958236,-0.85969 2.052447,-0.91178 4.42653,-0.21073 l 1.151192,0.33994 0.461506,-0.33501 c 0.539496,-0.39164 1.607775,-0.65939 2.653052,-0.66495 0.641446,-0.003 0.810264,-0.081 1.266253,-0.58213 0.294437,-0.32356 1.100804,-0.85609 1.831074,-1.20924 0.717717,-0.34708 1.490475,-0.80757 1.717238,-1.02332 0.226765,-0.21575 0.828206,-0.54714 1.336535,-0.73644 0.508331,-0.18929 0.966186,-0.41204 1.017455,-0.495 0.05127,-0.083 0.606658,-0.15083 1.234196,-0.15083 0.627538,0 1.421746,-0.0841 1.764904,-0.18693 0.491411,-0.14723 0.763703,-0.14081 1.282042,0.0303 0.476829,0.15737 0.777836,0.17201 1.092735,0.0532 0.305497,-0.11531 0.600938,-0.10805 0.994438,0.0244 0.470516,0.15842 0.662724,0.14174 1.204907,-0.10458 0.837321,-0.3804 1.611872,-0.37677 2.238751,0.0105 0.884815,0.5466 2.436544,0.51641 3.057955,-0.0595 0.388015,-0.35961 0.520047,-0.38642 1.515292,-0.3077 l 1.09023,0.0862 0.5343,-0.79913 c 0.29387,-0.43952 0.87444,-1.16212 1.29016,-1.60577 0.67018,-0.7152 0.88644,-0.83803 1.90771,-1.08344 1.07071,-0.2573 1.18787,-0.25817 1.66324,-0.0123 0.47046,0.24328 0.56545,0.24382 1.18656,0.007 0.61331,-0.2341 0.78326,-0.23497 1.85493,-0.009 1.92969,0.40611 1.99674,0.38866 3.22815,-0.84029 0.59993,-0.59871 1.65192,-1.47544 2.33775,-1.94827 l 1.24701,-0.85971 0.56875,0.33558 c 0.76017,0.44851 1.49416,0.42283 2.53732,-0.0888 0.80814,-0.39635 0.95704,-0.41671 2.25616,-0.30849 l 1.39091,0.11586 0.46465,0.75515 c 0.49,0.79634 0.94333,1.21534 2.5456,2.35278 0.97353,0.6911 0.9904,0.71652 1.58608,2.38844 l 0.60207,1.68991 0.91361,0.27426 c 0.50249,0.15084 1.38826,0.28747 1.96838,0.30361 0.88724,0.0247 1.19988,0.11732 1.96851,0.58328 0.71612,0.43412 0.98349,0.71319 1.23612,1.29016 0.19499,0.44531 0.53551,0.87184 0.86179,1.07943 0.43217,0.27497 0.57812,0.51082 0.73399,1.18613 0.10702,0.4636 0.33023,1.03487 0.49603,1.26949 0.16579,0.23461 0.4596,0.79609 0.6529,1.24774 0.46201,1.07948 1.62517,2.18067 2.7867,2.63821 0.50653,0.19953 0.99021,0.44622 1.07484,0.54821 0.0846,0.10198 0.30337,0.77086 0.48606,1.48639 0.48306,1.89205 0.72603,2.37508 1.56694,3.11529 0.41474,0.36506 0.79827,0.66388 0.85231,0.66406 0.054,1.6e-4 0.35186,0.38117 0.66184,0.84666 0.30996,0.4655 0.95068,1.28179 1.42383,1.81398 0.47315,0.53219 1.18993,1.58447 1.59286,2.33841 0.40295,0.75394 0.93123,1.66108 1.17397,2.01587 0.24273,0.3548 0.49361,0.93015 0.55751,1.27856 0.17012,0.92767 1.57243,3.03894 3.0623,4.61053 2.27894,2.40392 3.44524,4.04434 4.51664,6.35273 0.46631,1.0047 0.85492,1.60905 1.18649,1.84514 0.28298,0.20151 0.53903,0.56041 0.60096,0.84235 0.0594,0.27019 0.41775,0.95332 0.79645,1.51807 0.95968,1.43112 1.20496,2.13612 1.37911,3.96388 0.11413,1.19792 0.27181,1.85519 0.63968,2.66649 0.27556,0.60775 0.48819,1.35029 0.48819,1.70484 0,0.6602 0.5246,1.85024 1.303,2.95582 0.24979,0.3548 0.80267,1.69737 1.2286,2.9835 l 0.77444,2.33841 -0.0153,2.74628 c -0.0131,2.34055 -0.0639,2.87663 -0.34361,3.62857 -0.18051,0.48526 -0.3788,1.18651 -0.44068,1.55835 -0.13919,0.83652 0.27722,4.20611 0.80333,6.50045 0.37029,1.61483 0.38163,1.82793 0.2445,4.59619 -0.0799,1.61391 -0.25898,3.36831 -0.40319,3.95111 -0.14266,0.57654 -0.32725,1.59254 -0.41019,2.25778 -0.19657,1.57639 -0.46044,2.68732 -0.80444,3.38666 -0.33817,0.68748 -0.84312,2.39315 -1.20371,4.06588 -0.29306,1.35953 -1.67403,4.22396 -2.9701,6.16065 -1.58551,2.3692 -1.96058,2.94093 -2.3896,3.64268 -0.24402,0.39914 -0.67422,1.03001 -0.95599,1.40192 -0.28179,0.37192 -0.84419,1.33425 -1.24981,2.1385 -0.40561,0.80425 -0.921,1.73238 -1.14532,2.0625 -0.22432,0.33012 -0.40786,0.69201 -0.40786,0.80422 0,0.11219 -0.24411,0.47634 -0.54246,0.80922 -0.29836,0.33288 -0.66932,0.85316 -0.82436,1.15617 -0.15505,0.30303 -0.94508,1.21032 -1.75563,2.01622 -0.83225,0.82745 -1.78962,1.97952 -2.19945,2.64676 -0.39914,0.64983 -1.02682,1.5439 -1.39482,1.98682 -0.36802,0.44292 -0.88986,1.21946 -1.15965,1.72564 -0.52338,0.98199 -1.90422,2.37818 -3.90595,3.94943 -0.65995,0.51802 -1.88933,1.57866 -2.73196,2.35698 -0.84264,0.77832 -2.04006,1.83441 -2.66095,2.34686 -0.62089,0.51247 -1.45546,1.24194 -1.85461,1.62105 -1.27503,1.21104 -4.38468,3.43047 -5.99074,4.2757 -0.85569,0.45033 -1.94426,1.15197 -2.41904,1.55919 -1.07313,0.92042 -3.33693,2.3951 -4.40991,2.87268 -0.44419,0.19771 -1.0942,0.58862 -1.44446,0.86872 -0.35028,0.28009 -1.16718,0.7609 -1.81535,1.06849 -0.64816,0.30757 -1.5912,0.82325 -2.09566,1.14595 -1.02491,0.65563 -4.76552,2.38365 -5.71088,2.6382 -0.33677,0.0907 -0.83656,0.35358 -1.11065,0.58421 -0.52044,0.43792 -3.21084,1.18489 -4.2677,1.18489 -0.29148,0 -0.81124,0.0985 -1.15502,0.21897 -0.34376,0.12042 -0.97323,0.27053 -1.39882,0.33357 -0.42557,0.063 -0.98852,0.20492 -1.251,0.31528 -0.35355,0.14866 -1.34412,0.17753 -3.822411,0.11141 -5.527015,-0.1475 -9.458753,-0.0742 -9.942662,0.18544 -0.583534,0.31304 -5.74637,0.71844 -7.755533,0.60899 -0.771186,-0.042 -4.251826,0.25492 -4.59773,0.39222 -0.133895,0.0532 -0.569323,0.0358 -0.967619,-0.0385 -0.423613,-0.079 -0.924975,-0.0717 -1.207984,0.0178 -0.266095,0.0841 -1.282095,0.16858 -2.257778,0.18772 -0.975682,0.0191 -1.882825,0.0765 -2.015873,0.12742 -0.133047,0.0509 -0.900898,-0.0394 -1.706335,-0.20072 z"
       style="fill:#58bcbc;fill-opacity:1;stroke-width:0.16127" />
  </g>
</svg>
